<svg width="343" height="54" viewBox="0 0 343 54" fill="none" xmlns="http://www.w3.org/2000/svg">
<path opacity="0.2" d="M45.9639 38.0955L45.1682 38.7013L45.1778 38.7139L45.1878 38.7261L45.9639 38.0955ZM54.7959 44.8155H55.7959V43.8155H54.7959V44.8155ZM54.7959 51.0555V52.0555H55.7959V51.0555H54.7959ZM33.0999 42.7035L33.9019 42.1063L33.9018 42.1061L33.0999 42.7035ZM26.0919 32.7195L26.9263 32.1685L26.9169 32.1542L26.9071 32.1403L26.0919 32.7195ZM23.4999 29.0715L24.3151 28.4923L24 28.0489L23.4564 28.0725L23.4999 29.0715ZM21.2919 29.1675L21.2484 28.1685L20.2919 28.2101V29.1675H21.2919ZM20.9079 44.0475L19.9128 43.948L19.792 45.1565L21.0012 45.0432L20.9079 44.0475ZM27.1479 43.7595H28.1479V42.7595H27.1479V43.7595ZM27.1479 51.0555V52.0555H28.1479V51.0555H27.1479ZM1.89988 51.0555H0.899878V52.0555H1.89988V51.0555ZM1.89988 44.8155V43.8155H0.899878V44.8155H1.89988ZM6.60388 42.7995L7.48971 43.2635L6.60388 42.7995ZM8.04388 10.0635L9.03892 10.163L9.15942 8.958L7.95334 9.06765L8.04388 10.0635ZM1.80388 10.3515H0.803878V11.3515H1.80388V10.3515ZM1.80388 3.05554V2.05554H0.803878V3.05554H1.80388ZM26.9559 3.05554H27.9559V2.05554H26.9559V3.05554ZM26.9559 9.29554V10.2955H27.9559V9.29554H26.9559ZM23.1159 10.3515L23.7561 11.1198L23.7618 11.1149L23.1159 10.3515ZM21.5799 13.0395L20.6037 12.8226L20.5979 12.8487L20.5935 12.8751L21.5799 13.0395ZM21.2919 22.3515H20.2919V23.3515H21.2919V22.3515ZM25.8999 22.3515V23.3515H26.3562L26.6553 23.0068L25.8999 22.3515ZM32.8119 14.3835L32.0633 13.7205L32.0565 13.7283L32.8119 14.3835ZM36.5559 10.3515L37.2144 11.1041L37.5559 10.8053V10.3515H36.5559ZM36.5559 10.2555H37.5559V9.2365L36.537 9.25572L36.5559 10.2555ZM31.4679 10.3515H30.4679V11.3706L31.4867 11.3514L31.4679 10.3515ZM31.4679 3.05554V2.05554H30.4679V3.05554H31.4679ZM53.0679 3.05554H54.0679V2.05554H53.0679V3.05554ZM53.0679 9.19954L53.1715 10.1942L54.0679 10.1008V9.19954H53.0679ZM45.1959 11.7915L45.7328 12.6352L45.7391 12.6311L45.1959 11.7915ZM39.4359 16.7835L40.1787 17.4531L40.1844 17.4467L40.19 17.4403L39.4359 16.7835ZM33.2919 23.5995L32.5491 22.93L32.2919 23.2154V23.5995H33.2919ZM33.2919 23.6955H32.2919V24.3136L32.8447 24.59L33.2919 23.6955ZM36.1719 25.8075L35.4648 26.5146L35.49 26.5399L35.5169 26.5632L36.1719 25.8075ZM39.5319 29.6475L38.7283 30.2428L38.7362 30.2533L39.5319 29.6475ZM45.1878 38.7261C46.867 40.7929 48.3689 42.4604 49.6911 43.7165L51.0686 42.2665C49.8309 41.0907 48.3888 39.4942 46.74 37.465L45.1878 38.7261ZM49.6911 43.7165C51.1445 45.0972 52.8588 45.8155 54.7959 45.8155V43.8155C53.4049 43.8155 52.1753 43.3178 51.0686 42.2665L49.6911 43.7165ZM53.7959 44.8155V51.0555H55.7959V44.8155H53.7959ZM54.7959 50.0555H43.7559V52.0555H54.7959V50.0555ZM43.7559 50.0555C42.0812 50.0555 40.6173 49.5055 39.3241 48.3809L38.0117 49.8901C39.6625 51.3256 41.5905 52.0555 43.7559 52.0555V50.0555ZM39.3241 48.3809C37.9352 47.1732 36.1307 45.0991 33.9019 42.1063L32.2978 43.3008C34.5491 46.3239 36.4566 48.5379 38.0117 49.8901L39.3241 48.3809ZM33.9018 42.1061C31.481 38.8572 29.1559 35.5447 26.9263 32.1685L25.2574 33.2706C27.5078 36.6784 29.8547 40.0219 32.298 43.301L33.9018 42.1061ZM26.9071 32.1403L24.3151 28.4923L22.6847 29.6507L25.2767 33.2987L26.9071 32.1403ZM23.4564 28.0725L21.2484 28.1685L21.3353 30.1666L23.5433 30.0706L23.4564 28.0725ZM20.2919 29.1675V35.5995H22.2919V29.1675H20.2919ZM20.2919 35.5995C20.2919 38.6445 20.165 41.4267 19.9128 43.948L21.9029 44.147C22.1628 41.5484 22.2919 38.6986 22.2919 35.5995H20.2919ZM21.0012 45.0432C23.0174 44.8542 25.0662 44.7595 27.1479 44.7595V42.7595C25.0055 42.7595 22.8944 42.8569 20.8145 43.0519L21.0012 45.0432ZM26.1479 43.7595V51.0555H28.1479V43.7595H26.1479ZM27.1479 50.0555H1.89988V52.0555H27.1479V50.0555ZM2.89988 51.0555V44.8155H0.899878V51.0555H2.89988ZM1.89988 45.8155C4.46262 45.8155 6.52431 45.1066 7.48971 43.2635L5.71805 42.3355C5.27545 43.1805 4.20113 43.8155 1.89988 43.8155V45.8155ZM7.48971 43.2635C8.31171 41.6943 8.65988 39.312 8.65988 36.2715H6.65988C6.65988 39.2471 6.30404 41.2168 5.71805 42.3355L7.48971 43.2635ZM8.65988 36.2715V18.5115H6.65988V36.2715H8.65988ZM8.65988 18.5115C8.65988 15.4666 8.78678 12.6844 9.03892 10.163L7.04884 9.96404C6.78897 12.5627 6.65988 15.4125 6.65988 18.5115H8.65988ZM7.95334 9.06765C5.87038 9.25701 3.82061 9.35154 1.80388 9.35154V11.3515C3.88315 11.3515 5.99337 11.2541 8.13441 11.0594L7.95334 9.06765ZM2.80388 10.3515V3.05554H0.803878V10.3515H2.80388ZM1.80388 4.05554H26.9559V2.05554H1.80388V4.05554ZM25.9559 3.05554V9.29554H27.9559V3.05554H25.9559ZM26.9559 8.29554C25.122 8.29554 23.562 8.66412 22.4699 9.58815L23.7618 11.1149C24.3338 10.631 25.3337 10.2955 26.9559 10.2955V8.29554ZM22.4757 9.58332C21.5086 10.3893 20.8987 11.4952 20.6037 12.8226L22.5561 13.2565C22.7731 12.2799 23.1872 11.5938 23.7561 11.1198L22.4757 9.58332ZM20.5935 12.8751C20.3881 14.1073 20.2919 15.7709 20.2919 17.8395H22.2919C22.2919 15.8122 22.3876 14.2758 22.5663 13.2039L20.5935 12.8751ZM20.2919 17.8395V22.3515H22.2919V17.8395H20.2919ZM21.2919 23.3515H25.8999V21.3515H21.2919V23.3515ZM26.6553 23.0068L33.5673 15.0388L32.0565 13.7283L25.1445 21.6963L26.6553 23.0068ZM33.5605 15.0466C35.563 12.7857 36.7619 11.5001 37.2144 11.1041L35.8974 9.59896C35.3259 10.099 34.0288 11.5014 32.0633 13.7205L33.5605 15.0466ZM37.5559 10.3515V10.2555H35.5559V10.3515H37.5559ZM36.537 9.25572L31.449 9.35172L31.4867 11.3514L36.5747 11.2554L36.537 9.25572ZM32.4679 10.3515V3.05554H30.4679V10.3515H32.4679ZM31.4679 4.05554H53.0679V2.05554H31.4679V4.05554ZM52.0679 3.05554V9.19954H54.0679V3.05554H52.0679ZM52.9643 8.20492C49.7654 8.53814 46.984 9.44344 44.6526 10.952L45.7391 12.6311C47.7598 11.3236 50.2264 10.5009 53.1715 10.1942L52.9643 8.20492ZM44.659 10.9479C42.462 12.346 40.4696 14.0741 38.6818 16.1268L40.19 17.4403C41.8581 15.525 43.7058 13.9251 45.7328 12.6352L44.659 10.9479ZM38.6931 16.114L32.5491 22.93L34.0347 24.2691L40.1787 17.4531L38.6931 16.114ZM32.2919 23.5995V23.6955H34.2919V23.5995H32.2919ZM32.8447 24.59C33.7628 25.0491 34.6367 25.6866 35.4648 26.5146L36.879 25.1004C35.915 24.1365 34.8689 23.366 33.7391 22.8011L32.8447 24.59ZM35.5169 26.5632C36.3967 27.3257 37.4664 28.5391 38.7283 30.2428L40.3354 29.0523C39.0374 27.3 37.8671 25.9534 36.8268 25.0518L35.5169 26.5632ZM38.7362 30.2533L45.1682 38.7013L46.7595 37.4898L40.3275 29.0418L38.7362 30.2533ZM69.0759 44.8155V43.8155H68.0759V44.8155H69.0759ZM73.7799 42.7995L72.8941 42.3355L73.7799 42.7995ZM75.1239 10.5435L76.1217 10.6101L76.1928 9.54354H75.1239V10.5435ZM66.1959 12.7515L65.4574 12.0773L66.1959 12.7515ZM64.1799 20.5275V21.5275H65.1799V20.5275H64.1799ZM57.9399 20.5275L56.9401 20.5056L56.9177 21.5275H57.9399V20.5275ZM58.3239 3.05554V2.05554H57.3456L57.3241 3.03357L58.3239 3.05554ZM104.884 3.05554L105.884 3.03357L105.862 2.05554H104.884V3.05554ZM105.268 20.5275V21.5275H106.29L106.268 20.5056L105.268 20.5275ZM99.0279 20.5275H98.0279V21.5275H99.0279V20.5275ZM88.3719 10.5435V9.54354H87.3719V10.5435H88.3719ZM87.9879 44.0475L86.9928 43.948L86.8777 45.0998L88.034 45.0465L87.9879 44.0475ZM94.2279 43.7595H95.2279V42.7123L94.1818 42.7606L94.2279 43.7595ZM94.2279 51.0555V52.0555H95.2279V51.0555H94.2279ZM69.0759 51.0555H68.0759V52.0555H69.0759V51.0555ZM69.0759 45.8155C71.6386 45.8155 73.7003 45.1066 74.6657 43.2635L72.8941 42.3355C72.4515 43.1805 71.3771 43.8155 69.0759 43.8155V45.8155ZM74.6657 43.2635C75.4877 41.6943 75.8359 39.312 75.8359 36.2715H73.8359C73.8359 39.2471 73.48 41.2168 72.8941 42.3355L74.6657 43.2635ZM75.8359 36.2715V18.5115H73.8359V36.2715H75.8359ZM75.8359 18.5115C75.8359 16.1054 75.9309 13.4719 76.1217 10.6101L74.1261 10.477C73.9329 13.3752 73.8359 16.0537 73.8359 18.5115H75.8359ZM75.1239 9.54354H72.7239V11.5435H75.1239V9.54354ZM72.7239 9.54354C69.5779 9.54354 67.0696 10.3115 65.4574 12.0773L66.9344 13.4258C68.0102 12.2475 69.8538 11.5435 72.7239 11.5435V9.54354ZM65.4574 12.0773C63.8501 13.8377 63.1799 16.7569 63.1799 20.5275H65.1799C65.1799 16.8742 65.8537 14.6094 66.9344 13.4258L65.4574 12.0773ZM64.1799 19.5275H57.9399V21.5275H64.1799V19.5275ZM58.9396 20.5495L59.3236 3.07751L57.3241 3.03357L56.9401 20.5056L58.9396 20.5495ZM58.3239 4.05554H104.884V2.05554H58.3239V4.05554ZM103.884 3.07751L104.268 20.5495L106.268 20.5056L105.884 3.03357L103.884 3.07751ZM105.268 19.5275H99.0279V21.5275H105.268V19.5275ZM100.028 20.5275C100.028 16.7569 99.3577 13.8377 97.7504 12.0773L96.2734 13.4258C97.354 14.6094 98.0279 16.8742 98.0279 20.5275H100.028ZM97.7504 12.0773C96.1382 10.3115 93.6298 9.54354 90.4839 9.54354V11.5435C93.3539 11.5435 95.1976 12.2475 96.2734 13.4258L97.7504 12.0773ZM90.4839 9.54354H88.3719V11.5435H90.4839V9.54354ZM87.3719 10.5435V35.5995H89.3719V10.5435H87.3719ZM87.3719 35.5995C87.3719 38.6445 87.245 41.4267 86.9928 43.948L88.9829 44.147C89.2428 41.5484 89.3719 38.6986 89.3719 35.5995H87.3719ZM88.034 45.0465L94.274 44.7585L94.1818 42.7606L87.9418 43.0486L88.034 45.0465ZM93.2279 43.7595V51.0555H95.2279V43.7595H93.2279ZM94.2279 50.0555H69.0759V52.0555H94.2279V50.0555ZM70.0759 51.0555V44.8155H68.0759V51.0555H70.0759ZM121.63 49.6155L121.159 50.4975L121.63 49.6155ZM112.894 41.0715L113.763 40.577L112.894 41.0715ZM112.99 14.2875L113.87 14.7625L112.99 14.2875ZM121.726 4.87954L121.209 4.02333L121.203 4.02737L121.726 4.87954ZM146.302 4.49554L145.824 5.37402L146.302 4.49554ZM154.942 13.1355L154.069 13.6237L154.073 13.6301L154.942 13.1355ZM155.038 40.1115L154.149 39.6529L154.143 39.6643L155.038 40.1115ZM146.59 49.3275L146.078 48.4687L146.071 48.4728L146.59 49.3275ZM141.79 40.8795L140.872 40.4835L141.79 40.8795ZM126.238 13.2315L125.337 12.7982L126.238 13.2315ZM126.43 39.8235L127.347 39.4243H127.347L126.43 39.8235ZM134.206 51.5915C129.68 51.5915 125.653 50.6319 122.101 48.7336L121.159 50.4975C125.031 52.5672 129.388 53.5915 134.206 53.5915V51.5915ZM122.101 48.7336C118.558 46.84 115.783 44.1275 113.763 40.577L112.025 41.5661C114.229 45.4396 117.277 48.4231 121.159 50.4975L122.101 48.7336ZM113.763 40.577C111.749 37.0376 110.726 32.8931 110.726 28.1115H108.726C108.726 33.1859 109.815 37.6815 112.025 41.5661L113.763 40.577ZM110.726 28.1115C110.726 23.0713 111.783 18.6303 113.87 14.7625L112.11 13.8126C109.845 18.0088 108.726 22.7838 108.726 28.1115H110.726ZM113.87 14.7625C115.968 10.8742 118.762 7.87309 122.249 5.73171L121.203 4.02737C117.394 6.36599 114.363 9.63692 112.11 13.8126L113.87 14.7625ZM122.243 5.73573C125.796 3.59164 129.68 2.51954 133.918 2.51954V0.519539C129.323 0.519539 125.08 1.68744 121.209 4.02335L122.243 5.73573ZM133.918 2.51954C138.378 2.51954 142.338 3.47823 145.824 5.37402L146.78 3.61706C142.969 1.54485 138.674 0.519539 133.918 0.519539V2.51954ZM145.824 5.37402C149.299 7.26392 152.045 10.0052 154.069 13.6237L155.815 12.6474C153.615 8.71385 150.601 5.69516 146.78 3.61706L145.824 5.37402ZM154.073 13.6301C156.085 17.1676 157.11 21.3434 157.11 26.1915H159.11C159.11 21.0557 158.022 16.5275 155.811 12.641L154.073 13.6301ZM157.11 26.1915C157.11 31.3741 156.111 35.8512 154.149 39.6529L155.926 40.5702C158.06 36.4359 159.11 31.633 159.11 26.1915H157.11ZM154.143 39.6643C152.241 43.4694 149.554 46.3951 146.078 48.4687L147.102 50.1864C150.922 47.908 153.867 44.6897 155.932 40.5588L154.143 39.6643ZM146.071 48.4728C142.661 50.5432 138.716 51.5915 134.206 51.5915V53.5915C139.039 53.5915 143.351 52.4639 147.109 50.1823L146.071 48.4728ZM134.398 46.7755C136.316 46.7755 138.013 46.329 139.438 45.3853C140.862 44.4419 141.943 43.0494 142.708 41.2756L140.872 40.4835C140.229 41.9737 139.373 43.0291 138.334 43.7178C137.295 44.4061 136 44.7755 134.398 44.7755V46.7755ZM142.708 41.2756C144.187 37.8482 144.902 33.6066 144.902 28.5915H142.902C142.902 33.4325 142.209 37.3829 140.872 40.4835L142.708 41.2756ZM144.902 28.5915C144.902 22.9938 144.089 18.095 142.431 13.9187L140.572 14.6564C142.115 18.5441 142.902 23.1813 142.902 28.5915H144.902ZM142.431 13.9187C141.588 11.7941 140.468 10.1173 139.029 8.96971C137.576 7.81038 135.856 7.23954 133.918 7.23954V9.23954C135.436 9.23954 136.708 9.6767 137.782 10.5334C138.871 11.4018 139.816 12.749 140.572 14.6564L142.431 13.9187ZM133.918 7.23954C131.995 7.23954 130.279 7.69628 128.813 8.6491C127.35 9.60004 126.199 11.0038 125.337 12.7982L127.139 13.6648C127.876 12.1313 128.806 11.039 129.903 10.326C130.997 9.6148 132.321 9.23954 133.918 9.23954V7.23954ZM125.337 12.7982C123.654 16.2972 122.838 20.5511 122.838 25.5195H124.838C124.838 20.76 125.621 16.8218 127.139 13.6648L125.337 12.7982ZM122.838 25.5195C122.838 31.1872 123.717 36.0983 125.513 40.2228L127.347 39.4243C125.687 35.6128 124.838 30.9879 124.838 25.5195H122.838ZM125.513 40.2228C126.426 42.3188 127.616 43.9656 129.119 45.0887C130.635 46.2205 132.409 46.7755 134.398 46.7755V44.7755C132.803 44.7755 131.457 44.3386 130.316 43.4864C129.164 42.6255 128.162 41.2963 127.347 39.4243L125.513 40.2228ZM261.032 43.7595H262.032V42.7035L260.977 42.761L261.032 43.7595ZM261.032 51.0555V52.0555H262.032V51.0555H261.032ZM238.184 51.0555H237.184V52.0555H238.184V51.0555ZM238.184 44.8155V43.8155H237.184V44.8155H238.184ZM242.312 44.0475L242.808 44.9158L242.817 44.9105L242.826 44.905L242.312 44.0475ZM243.56 39.6315L244.546 39.4671L244.545 39.4593L244.543 39.4516L243.56 39.6315ZM239.432 17.0715L240.415 16.8916L239.769 13.3568L238.496 16.7175L239.432 17.0715ZM226.568 51.0555V52.0555H227.258L227.503 51.4096L226.568 51.0555ZM218.984 51.0555L218.062 51.4427L218.319 52.0555H218.984V51.0555ZM208.424 25.9035L207.493 26.2692L207.497 26.28L207.502 26.2906L208.424 25.9035ZM205.256 17.5515L206.193 17.2022L204.256 17.5515H205.256ZM204.392 27.5355L203.406 27.3681L203.404 27.3812L204.392 27.5355ZM202.472 39.8235L201.484 39.6692L201.483 39.6752L202.472 39.8235ZM201.608 43.9515L200.64 43.6991L200.303 44.9915L201.638 44.9511L201.608 43.9515ZM207.944 43.7595H208.944V42.7288L207.913 42.76L207.944 43.7595ZM207.944 51.0555V52.0555H208.944V51.0555H207.944ZM189.032 51.0555H188.032V52.0555H189.032V51.0555ZM189.032 44.8155L188.971 43.8174L188.032 43.8743V44.8155H189.032ZM193.64 43.5675L193.073 42.7435L193.061 42.7521L193.048 42.7611L193.64 43.5675ZM195.56 39.5355L194.568 39.4064L194.568 39.4076L195.56 39.5355ZM198.824 14.4795L199.815 14.6087L199.817 14.5979L199.818 14.587L198.824 14.4795ZM199.496 10.0635L200.444 10.3798L200.901 9.00945L199.458 9.06426L199.496 10.0635ZM191.912 10.3515H190.912V11.3902L191.95 11.3508L191.912 10.3515ZM191.912 3.05554V2.05554H190.912V3.05554H191.912ZM210.632 3.05554L211.554 2.66854L211.296 2.05554H210.632V3.05554ZM221.672 29.3595L220.75 29.7465L220.752 29.7535L220.755 29.7604L221.672 29.3595ZM223.016 32.4315L223.945 32.0632L223.939 32.0468L223.932 32.0307L223.016 32.4315ZM225.032 37.5195L224.102 37.8879L225.072 40.3354L225.971 37.8613L225.032 37.5195ZM227.336 31.1835L228.275 31.5253L228.276 31.5237L227.336 31.1835ZM237.512 3.05554V2.05554H236.81L236.571 2.71535L237.512 3.05554ZM256.52 3.05554H257.52V2.05554H256.52V3.05554ZM256.52 8.43154L256.572 9.43016L257.52 9.38029V8.43154H256.52ZM251.144 13.6155L252.129 13.4437L252.127 13.4315L252.124 13.4194L251.144 13.6155ZM255.464 38.3835L254.479 38.5554L254.484 38.5841L254.49 38.6126L255.464 38.3835ZM255.752 44.0475L254.765 43.8831L254.56 45.114L255.806 45.0461L255.752 44.0475ZM260.032 43.7595V51.0555H262.032V43.7595H260.032ZM261.032 50.0555H238.184V52.0555H261.032V50.0555ZM239.184 51.0555V44.8155H237.184V51.0555H239.184ZM238.184 45.8155C240.095 45.8155 241.683 45.5585 242.808 44.9158L241.815 43.1793C241.148 43.5606 239.985 43.8155 238.184 43.8155V45.8155ZM242.826 44.905C244.152 44.1096 244.752 42.7803 244.752 41.1675H242.752C242.752 42.2428 242.391 42.8335 241.797 43.19L242.826 44.905ZM244.752 41.1675C244.752 40.8147 244.672 40.2204 244.546 39.4671L242.573 39.7959C242.704 40.5787 242.752 41.0084 242.752 41.1675H244.752ZM244.543 39.4516L240.415 16.8916L238.448 17.2515L242.576 39.8115L244.543 39.4516ZM238.496 16.7175L225.632 50.7015L227.503 51.4096L240.367 17.4256L238.496 16.7175ZM226.568 50.0555H218.984V52.0555H226.568V50.0555ZM219.906 50.6684L209.346 25.5164L207.502 26.2906L218.062 51.4427L219.906 50.6684ZM209.354 25.5379C208.654 23.7544 207.6 20.9772 206.193 17.2022L204.319 17.9009C205.727 21.6778 206.786 24.4686 207.493 26.2692L209.354 25.5379ZM204.256 17.5515C204.256 20.7565 203.973 24.0285 203.406 27.3681L205.378 27.703C205.962 24.2586 206.256 20.8746 206.256 17.5515H204.256ZM203.404 27.3812L201.484 39.6692L203.46 39.9779L205.38 27.6899L203.404 27.3812ZM201.483 39.6752C201.297 40.9147 201.017 42.2556 200.64 43.6991L202.575 44.204C202.967 42.7034 203.262 41.2924 203.461 39.9719L201.483 39.6752ZM201.638 44.9511L207.974 44.7591L207.913 42.76L201.577 42.952L201.638 44.9511ZM206.944 43.7595V51.0555H208.944V43.7595H206.944ZM207.944 50.0555H189.032V52.0555H207.944V50.0555ZM190.032 51.0555V44.8155H188.032V51.0555H190.032ZM189.092 45.8137C191.266 45.682 193.037 45.2495 194.231 44.3739L193.048 42.7611C192.322 43.2935 191.021 43.6931 188.971 43.8174L189.092 45.8137ZM194.206 44.3916C195.575 43.4507 196.281 41.7616 196.551 39.6635L194.568 39.4076C194.327 41.2775 193.753 42.2764 193.073 42.7435L194.206 44.3916ZM196.551 39.6647L199.815 14.6087L197.832 14.3504L194.568 39.4064L196.551 39.6647ZM199.818 14.587C199.945 13.41 200.063 12.4659 200.172 11.75C200.284 11.0127 200.378 10.5777 200.444 10.3798L198.547 9.74731C198.421 10.1254 198.307 10.7144 198.195 11.4491C198.08 12.2052 197.958 13.1811 197.829 14.3721L199.818 14.587ZM199.458 9.06426L191.874 9.35226L191.95 11.3508L199.534 11.0628L199.458 9.06426ZM192.912 10.3515V3.05554H190.912V10.3515H192.912ZM191.912 4.05554H210.632V2.05554H191.912V4.05554ZM209.71 3.44255L220.75 29.7465L222.594 28.9725L211.554 2.66854L209.71 3.44255ZM220.755 29.7604L222.099 32.8324L223.932 32.0307L222.588 28.9587L220.755 29.7604ZM222.086 32.7999L224.102 37.8879L225.961 37.1512L223.945 32.0632L222.086 32.7999ZM225.971 37.8613L228.275 31.5253L226.396 30.8418L224.092 37.1778L225.971 37.8613ZM228.276 31.5237L238.452 3.39574L236.571 2.71535L226.395 30.8433L228.276 31.5237ZM237.512 4.05554H256.52V2.05554H237.512V4.05554ZM255.52 3.05554V8.43154H257.52V3.05554H255.52ZM256.467 7.43292C254.56 7.53329 252.969 7.92995 251.832 8.74773C250.634 9.60902 250.048 10.8607 250.048 12.3675H252.048C252.048 11.4423 252.373 10.8221 253 10.3713C253.687 9.87712 254.831 9.52179 256.572 9.43016L256.467 7.43292ZM250.048 12.3675C250.048 12.9128 250.081 13.4015 250.163 13.8117L252.124 13.4194C252.078 13.1896 252.048 12.8463 252.048 12.3675H250.048ZM250.159 13.7874L254.479 38.5554L256.449 38.2117L252.129 13.4437L250.159 13.7874ZM254.49 38.6126C254.725 39.6091 254.848 40.7777 254.848 42.1275H256.848C256.848 40.6614 256.715 39.334 256.437 38.1545L254.49 38.6126ZM254.848 42.1275C254.848 43.0207 254.814 43.588 254.765 43.8831L256.738 44.2119C256.817 43.7391 256.848 43.0264 256.848 42.1275H254.848ZM255.806 45.0461L261.086 44.7581L260.977 42.761L255.697 43.049L255.806 45.0461ZM267.253 44.8155L267.207 43.8166L266.253 43.86V44.8155H267.253ZM270.517 44.4315L270.759 45.4017L270.797 45.3924L270.833 45.3802L270.517 44.4315ZM272.341 42.7995L271.46 42.3254L272.341 42.7995ZM273.301 10.0635L274.299 10.1301L274.377 8.95829L273.208 9.06791L273.301 10.0635ZM267.157 10.3515H266.157V11.3515H267.157V10.3515ZM267.157 3.05554V2.05554H266.157V3.05554H267.157ZM292.405 3.05554H293.405V2.05554H292.405V3.05554ZM292.405 9.29554V10.2955H293.405V9.29554H292.405ZM287.701 11.3115L286.815 10.8475L287.701 11.3115ZM286.645 17.8395H285.645V17.8509L285.645 17.8623L286.645 17.8395ZM286.741 22.0635L285.741 22.0863L285.764 23.1069L286.784 23.0626L286.741 22.0635ZM291.157 21.8715L291.125 20.872L291.113 20.8725L291.157 21.8715ZM307.957 25.3275L307.332 26.1084L307.341 26.1152L307.349 26.1219L307.957 25.3275ZM308.053 47.2155L307.428 46.4346L307.421 46.4409L308.053 47.2155ZM267.253 51.0555H266.253V52.0555H267.253V51.0555ZM316.309 44.8155V43.8155H315.309V44.8155H316.309ZM321.013 42.7995L321.899 43.2635L321.013 42.7995ZM322.453 10.0635L323.448 10.163L323.568 8.958L322.362 9.06765L322.453 10.0635ZM316.213 10.3515H315.213V11.3515H316.213V10.3515ZM316.213 3.05554V2.05554H315.213V3.05554H316.213ZM341.365 3.05554H342.365V2.05554H341.365V3.05554ZM341.365 9.29554V10.2955H342.365V9.29554H341.365ZM336.661 11.3115L335.775 10.8475L335.766 10.8644L335.758 10.8816L336.661 11.3115ZM335.317 44.0475L334.322 43.948L334.201 45.1565L335.41 45.0432L335.317 44.0475ZM341.557 43.7595H342.557V42.7595H341.557V43.7595ZM341.557 51.0555V52.0555H342.557V51.0555H341.557ZM316.309 51.0555H315.309V52.0555H316.309V51.0555ZM293.173 44.4315L293.108 43.4336L293.099 43.4342L293.09 43.435L293.173 44.4315ZM297.877 42.0315L297.093 41.4108L297.089 41.4152L297.877 42.0315ZM297.589 29.9355L296.866 30.626L296.882 30.6428L296.898 30.6589L297.589 29.9355ZM286.645 27.9195L286.545 26.9245L285.645 27.0146V27.9195H286.645ZM286.357 42.2235L285.37 42.0591L285.366 42.086L285.363 42.1131L286.357 42.2235ZM286.069 44.5275L285.082 44.3631L284.888 45.5275H286.069V44.5275ZM267.298 45.8145C268.73 45.7494 269.895 45.6177 270.759 45.4017L270.274 43.4614C269.602 43.6294 268.592 43.7536 267.207 43.8166L267.298 45.8145ZM270.833 45.3802C271.883 45.0303 272.674 44.2898 273.221 43.2736L271.46 42.3254C271.112 42.9733 270.687 43.3208 270.201 43.4829L270.833 45.3802ZM273.221 43.2736C273.789 42.2198 274.013 40.7369 274.013 38.9595H272.013C272.013 40.6382 271.789 41.7153 271.46 42.3254L273.221 43.2736ZM274.013 38.9595V18.5115H272.013V38.9595H274.013ZM274.013 18.5115C274.013 15.7828 274.108 12.989 274.299 10.1301L272.303 9.99702C272.11 12.8981 272.013 15.7363 272.013 18.5115H274.013ZM273.208 9.06791C271.19 9.25701 269.174 9.35154 267.157 9.35154V11.3515C269.236 11.3515 271.315 11.2541 273.394 11.0592L273.208 9.06791ZM268.157 10.3515V3.05554H266.157V10.3515H268.157ZM267.157 4.05554H292.405V2.05554H267.157V4.05554ZM291.405 3.05554V9.29554H293.405V3.05554H291.405ZM292.405 8.29554C289.842 8.29554 287.78 9.00449 286.815 10.8475L288.587 11.7755C289.029 10.9306 290.104 10.2955 292.405 10.2955V8.29554ZM286.815 10.8475C285.993 12.4168 285.645 14.7991 285.645 17.8395H287.645C287.645 14.864 288.001 12.8943 288.587 11.7755L286.815 10.8475ZM285.645 17.8623L285.741 22.0863L287.741 22.0408L287.645 17.8168L285.645 17.8623ZM286.784 23.0626L291.2 22.8706L291.113 20.8725L286.697 21.0645L286.784 23.0626ZM291.189 22.871C299.146 22.6164 304.428 23.7852 307.332 26.1084L308.582 24.5467C305.086 21.7499 299.168 20.6147 291.125 20.8721L291.189 22.871ZM307.349 26.1219C310.337 28.4068 311.853 31.6171 311.853 35.8875H313.853C313.853 31.0699 312.104 27.2403 308.564 24.5332L307.349 26.1219ZM311.853 35.8875C311.853 40.649 310.339 44.1059 307.428 46.4347L308.678 47.9964C312.167 45.2051 313.853 41.11 313.853 35.8875H311.853ZM307.421 46.4409C304.499 48.8254 300.706 50.0555 295.957 50.0555V52.0555C301.064 52.0555 305.334 50.7257 308.685 47.9902L307.421 46.4409ZM295.957 50.0555H267.253V52.0555H295.957V50.0555ZM268.253 51.0555V44.8155H266.253V51.0555H268.253ZM316.309 45.8155C318.872 45.8155 320.933 45.1066 321.899 43.2635L320.127 42.3355C319.684 43.1805 318.61 43.8155 316.309 43.8155V45.8155ZM321.899 43.2635C322.721 41.6943 323.069 39.312 323.069 36.2715H321.069C321.069 39.2471 320.713 41.2168 320.127 42.3355L321.899 43.2635ZM323.069 36.2715V18.5115H321.069V36.2715H323.069ZM323.069 18.5115C323.069 15.4666 323.196 12.6844 323.448 10.163L321.458 9.96404C321.198 12.5627 321.069 15.4125 321.069 18.5115H323.069ZM322.362 9.06765C320.279 9.25701 318.23 9.35154 316.213 9.35154V11.3515C318.292 11.3515 320.402 11.2541 322.543 11.0594L322.362 9.06765ZM317.213 10.3515V3.05554H315.213V10.3515H317.213ZM316.213 4.05554H341.365V2.05554H316.213V4.05554ZM340.365 3.05554V9.29554H342.365V3.05554H340.365ZM341.365 8.29554C338.802 8.29554 336.74 9.00449 335.775 10.8475L337.547 11.7755C337.989 10.9306 339.064 10.2955 341.365 10.2955V8.29554ZM335.758 10.8816C335.017 12.438 334.701 14.8044 334.701 17.8395H336.701C336.701 14.8587 337.025 12.8731 337.564 11.7415L335.758 10.8816ZM334.701 17.8395V35.5995H336.701V17.8395H334.701ZM334.701 35.5995C334.701 38.6445 334.574 41.4267 334.322 43.948L336.312 44.147C336.572 41.5484 336.701 38.6986 336.701 35.5995H334.701ZM335.41 45.0432C337.426 44.8542 339.475 44.7595 341.557 44.7595V42.7595C339.415 42.7595 337.303 42.8569 335.224 43.0519L335.41 45.0432ZM340.557 43.7595V51.0555H342.557V43.7595H340.557ZM341.557 50.0555H316.309V52.0555H341.557V50.0555ZM317.309 51.0555V44.8155H315.309V51.0555H317.309ZM289.813 45.5275C291.293 45.5275 292.446 45.4956 293.256 45.4281L293.09 43.435C292.364 43.4955 291.277 43.5275 289.813 43.5275V45.5275ZM293.237 45.4295C295.485 45.2844 297.324 44.3599 298.664 42.6479L297.089 41.4152C296.125 42.6471 294.829 43.3226 293.108 43.4336L293.237 45.4295ZM298.661 42.6522C300.055 40.8918 300.701 38.6033 300.701 35.8875H298.701C298.701 38.2918 298.131 40.0993 297.093 41.4108L298.661 42.6522ZM300.701 35.8875C300.701 33.0889 299.947 30.8036 298.279 29.2122L296.898 30.6589C298.047 31.7555 298.701 33.4382 298.701 35.8875H300.701ZM298.312 29.2451C296.762 27.6215 294.764 26.8235 292.405 26.8235V28.8235C294.269 28.8235 295.727 29.4336 296.866 30.626L298.312 29.2451ZM292.405 26.8235H289.237V28.8235H292.405V26.8235ZM289.237 26.8235C288.135 26.8235 287.233 26.8557 286.545 26.9245L286.744 28.9146C287.336 28.8554 288.163 28.8235 289.237 28.8235V26.8235ZM285.645 27.9195V38.7675H287.645V27.9195H285.645ZM285.645 38.7675C285.645 39.8637 285.554 40.9607 285.37 42.0591L287.343 42.3879C287.544 41.1824 287.645 39.9754 287.645 38.7675H285.645ZM285.363 42.1131C285.234 43.2695 285.141 44.0105 285.082 44.3631L287.055 44.6919C287.124 44.2766 287.223 43.4816 287.351 42.334L285.363 42.1131ZM286.069 45.5275H289.813V43.5275H286.069V45.5275Z" fill="black"/>
</svg>
