<svg width="69" height="69" viewBox="0 0 69 69" fill="none" xmlns="http://www.w3.org/2000/svg">
<path d="M67.0349 61.8319H63.6314V40.2765C63.631 39.65 63.1226 39.1425 62.496 39.1429C62.1263 39.1432 61.7799 39.3235 61.5677 39.6265L45.6848 62.3163C45.3258 62.8298 45.451 63.5372 45.9645 63.8961C46.1549 64.0293 46.3816 64.1007 46.614 64.1009H61.3624V67.5044C61.3624 68.1309 61.8704 68.6389 62.4969 68.6389C63.1234 68.6389 63.6314 68.1309 63.6314 67.5044V64.1009H67.0349C67.6614 64.1009 68.1694 63.5929 68.1694 62.9664C68.1694 62.3399 67.6614 61.8319 67.0349 61.8319ZM61.3624 61.8319H48.7922L61.3624 43.8751V61.8319Z" fill="#E80000"/>
<path d="M46.6138 66.3698H33.1826L45.6699 51.6657C45.6983 51.6319 45.7248 51.5967 45.7493 51.5601C48.0986 48.0832 47.3161 43.3758 43.9682 40.846C39.8975 37.9211 34.2264 38.8501 31.3017 42.9208C30.1926 44.4645 29.5962 46.3172 29.5964 48.2179C29.5964 48.8444 30.1044 49.3524 30.7309 49.3524C31.3575 49.3524 31.8654 48.8444 31.8654 48.2179C31.865 44.4585 34.9124 41.4107 38.6717 41.4103C40.0966 41.4101 41.4856 41.8571 42.6431 42.6884C44.9882 44.4853 45.5344 47.7946 43.891 50.2498L29.8664 66.7703C29.461 67.2481 29.5197 67.9639 29.9975 68.3694C30.2024 68.5432 30.4622 68.6387 30.7309 68.6388H46.6138C47.2404 68.6388 47.7483 68.1308 47.7483 67.5043C47.7483 66.8778 47.2404 66.3698 46.6138 66.3698Z" fill="#E80000"/>
<path d="M30.7559 60.7189C30.7796 60.0928 30.291 59.5661 29.6649 59.5424C29.6648 59.5424 29.6646 59.5424 29.6645 59.5424C14.8636 58.9931 2.9842 47.1349 2.4083 32.335H6.90657C7.53309 32.335 8.04106 31.8271 8.04106 31.2005C8.04106 30.574 7.53309 30.066 6.90657 30.066H2.4083C2.97598 15.2922 14.8225 3.44615 29.5964 2.87904V6.24168C29.5964 6.8682 30.1044 7.37617 30.7309 7.37617C31.3575 7.37617 31.8654 6.8682 31.8654 6.24168V2.87904C46.4371 3.4426 58.1979 14.9812 59.0388 29.5396L54.6143 25.1151C54.1636 24.6798 53.4455 24.6922 53.0101 25.1429C52.5855 25.5825 52.5855 26.2795 53.0101 26.7193L59.3429 33.052C59.4621 33.1964 59.6158 33.3083 59.7898 33.3776C59.8342 33.391 59.8793 33.402 59.9249 33.4105C60.0027 33.4386 60.0833 33.458 60.1654 33.4684C60.1767 33.4684 60.1869 33.4684 60.1983 33.4684C60.2096 33.4684 60.2198 33.4684 60.23 33.4684C60.3164 33.4619 60.4018 33.4451 60.4842 33.4185C60.5308 33.4128 60.577 33.4041 60.6226 33.3924C60.7761 33.3378 60.916 33.2503 61.0321 33.136L67.4511 26.7193C67.8863 26.2686 67.874 25.5505 67.4233 25.1151C66.9837 24.6905 66.2867 24.6905 65.8469 25.1151L61.3123 29.6463C60.5019 13.3847 47.0932 0.609063 30.8115 0.585097C30.7831 0.583962 30.7593 0.569214 30.7309 0.569214C30.7026 0.569214 30.6787 0.583962 30.6504 0.585097C13.7961 0.608212 0.138608 14.2657 0.115492 31.12C0.115492 31.1483 0.0996094 31.1722 0.0996094 31.2005C0.0996094 31.2289 0.114358 31.2527 0.115492 31.2811C0.143713 47.7195 13.1535 61.1991 29.5806 61.8103H29.6225C30.2322 61.8102 30.7328 61.3281 30.7559 60.7189Z" fill="#E80000"/>
<path d="M45.9728 15.9586C45.5298 15.5157 44.8117 15.5157 44.3687 15.9586L32.1774 28.1488C31.2563 27.7381 30.2042 27.7381 29.2833 28.1488L23.511 22.3765C23.0603 21.9412 22.342 21.9537 21.9068 22.4044C21.4822 22.844 21.4822 23.541 21.9068 23.9806L27.6678 29.7416C26.8589 31.4348 27.5759 33.4633 29.2693 34.272C30.569 34.8929 32.119 34.6267 33.1372 33.6079C34.1609 32.5929 34.4245 31.0386 33.7929 29.7427L45.9728 17.5628C46.4157 17.1198 46.4157 16.4016 45.9728 15.9586ZM31.5333 32.0023C31.5331 32.0025 31.5331 32.0025 31.533 32.0026C31.0843 32.4316 30.3775 32.4316 29.9288 32.0026C29.4857 31.5596 29.4857 30.8413 29.9285 30.3982C30.3716 29.955 31.0898 29.955 31.533 30.3979C31.9762 30.8409 31.9762 31.5593 31.5333 32.0023Z" fill="#E80000"/>
</svg>
