<svg width="69" height="62" viewBox="0 0 69 62" fill="none" xmlns="http://www.w3.org/2000/svg">
<path d="M64.8254 0.198425H23.9837C22.1039 0.198425 20.5802 1.72219 20.5802 3.60191V28.5608H5.83177C3.95205 28.5608 2.42829 30.0845 2.42829 31.9642V54.6541H1.2938C0.667271 54.6541 0.159302 55.1621 0.159302 55.7886C0.162989 58.9198 2.70057 61.4574 5.83177 61.4611H42.1356C45.2652 61.4642 47.8049 58.9296 47.808 55.7999C47.808 55.7961 47.808 55.7924 47.808 55.7886C47.808 55.1621 47.3001 54.6541 46.6735 54.6541H45.539V42.1747H58.0185C58.645 42.1747 59.153 41.6667 59.153 41.0402C59.153 40.4137 58.645 39.9057 58.0185 39.9057H52.0669L50.4469 34.2332H64.8254C66.7051 34.2332 68.2289 32.7095 68.2289 30.8297V3.60191C68.2289 1.72219 66.7051 0.198425 64.8254 0.198425ZM4.69728 31.9642C4.69728 31.3377 5.20524 30.8297 5.83177 30.8297H42.1356C42.7621 30.8297 43.2701 31.3377 43.2701 31.9642V54.6541H27.3871C26.7606 54.6541 26.2526 55.1621 26.2526 55.7886H21.7147C21.7147 55.1621 21.2067 54.6541 20.5802 54.6541H4.69728V31.9642ZM44.5498 58.1915C43.9089 58.831 43.0409 59.1908 42.1356 59.1921H5.83177C4.38983 59.1904 3.10487 58.2819 2.62229 56.9231H19.4457C19.4457 57.5496 19.9537 58.0576 20.5802 58.0576H27.3871C28.0137 58.0576 28.5216 57.5496 28.5216 56.9231H45.345C45.176 57.399 44.9044 57.832 44.5498 58.1915ZM45.539 39.9057V34.2332H48.0871L49.7072 39.9057H45.539ZM65.9599 30.8297C65.9599 31.4563 65.452 31.9642 64.8254 31.9642H45.539C45.539 30.0845 44.0153 28.5608 42.1356 28.5608H22.8492V3.60191C22.8492 2.97538 23.3571 2.46741 23.9837 2.46741H64.8254C65.452 2.46741 65.9599 2.97538 65.9599 3.60191V30.8297Z" fill="#E91E1E"/>
</svg>
