<svg width="69" height="69" viewBox="0 0 69 69" fill="none" xmlns="http://www.w3.org/2000/svg">
<g clip-path="url(#clip0)">
<path d="M57.1422 49.1828L54.2528 47.4517C53.372 46.9249 52.3644 46.6468 51.3379 46.6462H46.9894C46.0992 46.6446 45.2129 46.7592 44.352 46.9863L31.25 50.5034C29.8175 50.8989 28.6669 51.9658 28.165 53.3645L16.6406 47.1298C15.7061 46.598 14.612 46.4174 13.5562 46.6202C13.1579 46.6905 12.7718 46.8174 12.409 46.9969C11.5897 47.3891 10.91 48.0228 10.4602 48.8122C10.0669 49.4996 9.86024 50.2779 9.86024 51.0695C9.84805 52.686 10.7045 54.1838 12.1026 54.9937L32.7573 67.3518C33.6547 67.9074 34.6884 68.2016 35.7436 68.2016H51.7285C52.4425 68.2022 53.1499 68.067 53.8135 67.8044L57.1422 66.4899V68.2016H68.4872V45.5117H57.1422V49.1828ZM52.9798 65.6944C52.5827 65.8512 52.1589 65.9321 51.7318 65.9326H35.7436C35.1044 65.9321 34.4779 65.752 33.9361 65.413L13.2532 53.0405C12.5502 52.6344 12.1198 51.8822 12.1253 51.0706C12.127 50.6729 12.2317 50.2818 12.4295 49.9361C12.6555 49.5445 12.9956 49.2304 13.4039 49.0365C13.5839 48.949 13.7745 48.8869 13.9711 48.8526C14.1146 48.826 14.2603 48.8122 14.406 48.8122C14.7959 48.8111 15.1793 48.913 15.5177 49.1069L28.0143 55.8595C28.0287 55.9288 28.0287 55.9969 28.047 56.0662C28.5844 58.0465 30.3808 59.422 32.4332 59.4242C33.0647 59.3666 33.6901 59.2547 34.3028 59.0907L46.0898 55.9365L45.5048 53.7446L33.7561 56.8849C33.2387 57.004 32.5712 57.1403 32.4332 57.1519C31.4084 57.1536 30.5099 56.4689 30.2401 55.4806C30.2036 55.3433 30.182 55.2026 30.1742 55.0607C30.1742 55.0607 30.1653 54.786 30.1742 54.6896C30.2606 53.7407 30.9254 52.9441 31.8433 52.6887L44.9398 49.185C45.6084 49.006 46.2975 48.9152 46.9894 48.9152H51.3379C51.9539 48.9152 52.5583 49.0825 53.0862 49.3988L57.1422 51.8273V64.0492L52.9798 65.6944ZM59.4112 47.7807H66.2182V65.9326H59.4112V47.7807Z" fill="#E80000"/>
<path d="M47.2088 9.2077L41.1231 3.12254C39.2125 1.20088 36.6128 0.124 33.9034 0.131755H19.6403C18.7601 0.132863 17.892 0.338379 17.1037 0.730577L14.5611 2.00245C14.0515 2.25893 13.4853 2.38135 12.9153 2.35864L11.7625 2.3182V0.131755H0.417603V25.0906H11.7625V21.6871H13.6914L14.3777 22.1408C16.2983 23.416 18.5346 24.1362 20.8385 24.2204V38.7045H68.4872V9.2077H47.2088ZM9.49355 22.8216H2.68659V2.40074H9.49355V22.8216ZM15.6336 20.2529L14.3716 19.4181H11.7625V4.5883L12.8322 4.62652C13.7822 4.66031 14.7251 4.4559 15.5754 4.03213L18.1158 2.76026C18.5889 2.52372 19.1113 2.40074 19.6403 2.40074H33.9034C36.0107 2.39465 38.0331 3.23222 39.5188 4.72623L44.0003 9.2077H34.6385L31.8848 6.45456L30.2811 8.05825L38.2952 16.0728C39.1854 16.9592 39.1881 18.3994 38.3018 19.2902C37.4149 20.1804 35.9747 20.1831 35.0845 19.2968L28.3911 12.6034L27.5967 13.2842C25.4036 15.1466 22.1979 15.1943 19.9499 13.3972L19.2924 12.8643L17.8627 14.627L18.5274 15.166C19.2226 15.7216 20.0031 16.1615 20.8385 16.4683V21.9503C18.9816 21.8677 17.1818 21.2811 15.6336 20.2529ZM31.7718 19.191L33.4835 20.9033C35.2606 22.6538 38.1135 22.6565 39.8933 20.9088C38.2281 23.4875 38.8851 26.9192 41.3851 28.7002C43.8851 30.4811 47.3434 29.9809 49.2363 27.5651C51.1291 25.1488 50.7873 21.6711 48.4596 19.6702C46.1325 17.6693 42.6426 17.8527 40.5381 20.0862C41.3131 18.8692 41.4516 17.3525 40.9098 16.0147H56.1019C56.59 18.8692 58.8257 21.1049 61.6802 21.593V26.3193C58.8257 26.8073 56.59 29.0431 56.1019 31.8976H33.2237C32.7357 29.0431 30.5 26.8073 27.6454 26.3193V21.593C29.2669 21.3199 30.7332 20.4662 31.7718 19.191ZM41.2594 23.9561C41.2594 22.0766 42.7833 20.5526 44.6628 20.5526C46.5424 20.5526 48.0663 22.0766 48.0663 23.9561C48.0663 25.8357 46.5424 27.3596 44.6628 27.3596C42.7833 27.3596 41.2594 25.8357 41.2594 23.9561ZM66.2182 36.4355H23.1075V16.9436C24.9062 17.0788 26.6993 16.6201 28.2127 15.6391L30.1482 17.5746C29.2968 18.7312 27.9473 19.4154 26.511 19.4181H25.3765V28.4941H26.511C29.017 28.4941 31.0489 30.526 31.0489 33.0321V34.1666H58.2768V33.0321C58.2768 30.526 60.3087 28.4941 62.8147 28.4941H63.9492V19.4181H62.8147C60.3087 19.4181 58.2768 17.3862 58.2768 14.8802V13.7457H39.1765L36.9075 11.4767H66.2182V36.4355Z" fill="#E80000"/>
</g>
<defs>
<clipPath id="clip0">
<rect width="68.0696" height="68.0696" fill="white" transform="translate(0.417603 0.132019)"/>
</clipPath>
</defs>
</svg>
