<svg width="372" height="54" viewBox="0 0 372 54" fill="none" xmlns="http://www.w3.org/2000/svg">
<path opacity="0.2" d="M13.5648 49.56L13.0934 50.4419L13.5648 49.56ZM4.82881 41.016L5.69798 40.5215L4.82881 41.016ZM4.92482 14.232L5.80484 14.7069L4.92482 14.232ZM13.6608 4.824L13.1441 3.96778L13.1376 3.97182L13.6608 4.824ZM38.2368 4.44L37.759 5.31848L38.2368 4.44ZM46.8768 13.08L46.004 13.5682L46.0077 13.5745L46.8768 13.08ZM46.9728 40.056L46.0841 39.5973L46.0784 39.6088L46.9728 40.056ZM38.5248 49.272L38.0125 48.4132L38.0058 48.4172L38.5248 49.272ZM33.7248 40.824L32.8066 40.4279L33.7248 40.824ZM18.1728 13.176L17.2716 12.7427L18.1728 13.176ZM18.3648 39.768L19.2817 39.3687L18.3648 39.768ZM26.1408 51.536C21.6148 51.536 17.5877 50.5763 14.0362 48.6781L13.0934 50.4419C16.9659 52.5117 21.3228 53.536 26.1408 53.536V51.536ZM14.0362 48.6781C10.4933 46.7844 7.71806 44.0719 5.69798 40.5215L3.95965 41.5105C6.16357 45.3841 9.21236 48.3676 13.0934 50.4419L14.0362 48.6781ZM5.69798 40.5215C3.68416 36.982 2.66081 32.8376 2.66081 28.056H0.660815C0.660815 33.1304 1.74947 37.626 3.95965 41.5105L5.69798 40.5215ZM2.66081 28.056C2.66081 23.0157 3.71745 18.5747 5.80484 14.7069L4.04479 13.7571C1.78018 17.9533 0.660815 22.7283 0.660815 28.056H2.66081ZM5.80484 14.7069C7.90329 10.8186 10.6967 7.81755 14.1841 5.67617L13.1376 3.97182C9.32894 6.31045 6.29834 9.58138 4.04479 13.7571L5.80484 14.7069ZM14.1775 5.68018C17.7305 3.53609 21.6154 2.464 25.8528 2.464V0.463997C21.2583 0.463997 17.0151 1.6319 13.1441 3.96781L14.1775 5.68018ZM25.8528 2.464C30.3126 2.464 34.2732 3.42269 37.759 5.31848L38.7146 3.56152C34.9044 1.48931 30.6091 0.463997 25.8528 0.463997V2.464ZM37.759 5.31848C41.234 7.20838 43.9802 9.94969 46.0041 13.5682L47.7496 12.5918C45.5495 8.65831 42.5356 5.63961 38.7146 3.56152L37.759 5.31848ZM46.0077 13.5745C48.0204 17.1121 49.0448 21.2879 49.0448 26.136H51.0448C51.0448 21.0001 49.9572 16.4719 47.746 12.5855L46.0077 13.5745ZM49.0448 26.136C49.0448 31.3185 48.0463 35.7957 46.0842 39.5974L47.8614 40.5146C49.9953 36.3803 51.0448 31.5775 51.0448 26.136H49.0448ZM46.0784 39.6088C44.1758 43.4139 41.4889 46.3395 38.0125 48.4132L39.0371 50.1308C42.8567 47.8525 45.8018 44.6341 47.8672 40.5032L46.0784 39.6088ZM38.0058 48.4172C34.5957 50.4877 30.6513 51.536 26.1408 51.536V53.536C30.9743 53.536 35.2859 52.4083 39.0438 50.1268L38.0058 48.4172ZM26.3328 46.72C28.2511 46.72 29.9481 46.2735 31.373 45.3297C32.7972 44.3864 33.8779 42.9938 34.643 41.2201L32.8066 40.4279C32.1637 41.9182 31.3084 42.9736 30.2686 43.6623C29.2295 44.3505 27.9346 44.72 26.3328 44.72V46.72ZM34.643 41.2201C36.1215 37.7926 36.8368 33.5511 36.8368 28.536H34.8368C34.8368 33.3769 34.1441 37.3274 32.8066 40.4279L34.643 41.2201ZM36.8368 28.536C36.8368 22.9383 36.0236 18.0394 34.3663 13.8632L32.5073 14.6008C34.0501 18.4886 34.8368 23.1257 34.8368 28.536H36.8368ZM34.3663 13.8632C33.5232 11.7385 32.4033 10.0617 30.9643 8.91417C29.5105 7.75484 27.7906 7.184 25.8528 7.184V9.184C27.371 9.184 28.6431 9.62116 29.7173 10.4778C30.8063 11.3463 31.7504 12.6935 32.5073 14.6008L34.3663 13.8632ZM25.8528 7.184C23.9297 7.184 22.2137 7.64074 20.7478 8.59356C19.2848 9.54449 18.1343 10.9483 17.2716 12.7427L19.0741 13.6093C19.8114 12.0757 20.7408 10.9835 21.8378 10.2704C22.9319 9.55926 24.256 9.184 25.8528 9.184V7.184ZM17.2716 12.7427C15.5894 16.2417 14.7728 20.4956 14.7728 25.464H16.7728C16.7728 20.7044 17.5563 16.7663 19.0741 13.6093L17.2716 12.7427ZM14.7728 25.464C14.7728 31.1316 15.6518 36.0428 17.448 40.1673L19.2817 39.3687C17.6218 35.5572 16.7728 30.9324 16.7728 25.464H14.7728ZM17.448 40.1673C18.3608 42.2633 19.5509 43.9101 21.0544 45.0332C22.5695 46.1649 24.3436 46.72 26.3328 46.72V44.72C24.738 44.72 23.3922 44.2831 22.2513 43.4308C21.0988 42.5699 20.0969 41.2407 19.2817 39.3687L17.448 40.1673ZM65.6358 44.76V43.76H64.6358V44.76H65.6358ZM70.3398 42.744L69.454 42.28L70.3398 42.744ZM71.6838 10.488L72.6816 10.5545L72.7527 9.488H71.6838V10.488ZM62.7558 12.696L62.0173 12.0217L62.7558 12.696ZM60.7398 20.472V21.472H61.7398V20.472H60.7398ZM54.4998 20.472L53.5001 20.45L53.4776 21.472H54.4998V20.472ZM54.8838 3V2H53.9056L53.8841 2.97803L54.8838 3ZM101.444 3L102.444 2.97803L102.422 2H101.444V3ZM101.828 20.472V21.472H102.85L102.828 20.45L101.828 20.472ZM95.5878 20.472H94.5878V21.472H95.5878V20.472ZM84.9318 10.488V9.488H83.9318V10.488H84.9318ZM84.5478 43.992L83.5528 43.8925L83.4376 45.0443L84.5939 44.9909L84.5478 43.992ZM90.7878 43.704H91.7878V42.6568L90.7417 42.7051L90.7878 43.704ZM90.7878 51V52H91.7878V51H90.7878ZM65.6358 51H64.6358V52H65.6358V51ZM65.6358 45.76C68.1986 45.76 70.2602 45.051 71.2256 43.208L69.454 42.28C69.0114 43.1249 67.9371 43.76 65.6358 43.76V45.76ZM71.2256 43.208C72.0477 41.6387 72.3958 39.2564 72.3958 36.216H70.3958C70.3958 39.1916 70.04 41.1613 69.454 42.28L71.2256 43.208ZM72.3958 36.216V18.456H70.3958V36.216H72.3958ZM72.3958 18.456C72.3958 16.0498 72.4908 13.4163 72.6816 10.5545L70.686 10.4215C70.4928 13.3197 70.3958 15.9982 70.3958 18.456H72.3958ZM71.6838 9.488H69.2838V11.488H71.6838V9.488ZM69.2838 9.488C66.1379 9.488 63.6295 10.256 62.0173 12.0217L63.4943 13.3703C64.5701 12.192 66.4138 11.488 69.2838 11.488V9.488ZM62.0173 12.0217C60.41 13.7822 59.7398 16.7014 59.7398 20.472H61.7398C61.7398 16.8186 62.4136 14.5538 63.4943 13.3703L62.0173 12.0217ZM60.7398 19.472H54.4998V21.472H60.7398V19.472ZM55.4996 20.494L55.8836 3.02197L53.8841 2.97803L53.5001 20.45L55.4996 20.494ZM54.8838 4H101.444V2H54.8838V4ZM100.444 3.02197L100.828 20.494L102.828 20.45L102.444 2.97803L100.444 3.02197ZM101.828 19.472H95.5878V21.472H101.828V19.472ZM96.5878 20.472C96.5878 16.7014 95.9176 13.7822 94.3103 12.0217L92.8333 13.3703C93.914 14.5538 94.5878 16.8186 94.5878 20.472H96.5878ZM94.3103 12.0217C92.6981 10.256 90.1898 9.488 87.0438 9.488V11.488C89.9139 11.488 91.7575 12.192 92.8333 13.3703L94.3103 12.0217ZM87.0438 9.488H84.9318V11.488H87.0438V9.488ZM83.9318 10.488V35.544H85.9318V10.488H83.9318ZM83.9318 35.544C83.9318 38.5889 83.8049 41.3712 83.5528 43.8925L85.5429 44.0915C85.8027 41.4928 85.9318 38.6431 85.9318 35.544H83.9318ZM84.5939 44.9909L90.8339 44.7029L90.7417 42.7051L84.5017 42.9931L84.5939 44.9909ZM89.7878 43.704V51H91.7878V43.704H89.7878ZM90.7878 50H65.6358V52H90.7878V50ZM66.6358 51V44.76H64.6358V51H66.6358ZM139.118 24.696H138.118V25.4783L138.877 25.6666L139.118 24.696ZM144.494 48.696L143.96 47.8502L143.954 47.854L144.494 48.696ZM117.23 50.808L117.585 49.8732L117.23 50.808ZM109.838 46.008L109.062 46.6386L109.072 46.6519L109.084 46.6648L109.838 46.008ZM109.07 34.296L108.313 33.6424L108.304 33.6525L108.296 33.6628L109.07 34.296ZM118.382 34.104L119.163 33.4793L118.382 34.104ZM119.438 40.536L120.361 40.9206L120.366 40.9079L120.371 40.895L119.438 40.536ZM118.19 42.552L117.442 41.8876L116.971 42.4177L117.316 43.0376L118.19 42.552ZM121.934 45.336L122.288 44.401L121.934 45.336ZM134.798 43.992L135.477 44.7258L135.484 44.7191L135.491 44.7123L134.798 43.992ZM135.086 30.648L134.427 31.4006L134.436 31.4085L134.446 31.4162L135.086 30.648ZM121.934 28.632H120.934V29.632H121.934V28.632ZM121.934 22.68V21.68H120.934V22.68H121.934ZM133.454 20.472L132.683 19.8351L132.674 19.8453L132.666 19.8557L133.454 20.472ZM132.974 9.336L132.337 10.107L132.355 10.1219L132.374 10.136L132.974 9.336ZM120.782 10.104L120.149 9.33004L120.782 10.104ZM116.846 18.936V19.936H117.73L117.838 19.0582L116.846 18.936ZM110.702 18.936H109.702V19.936H110.702V18.936ZM110.702 1.944V0.943996H109.702V1.944H110.702ZM117.998 1.944L118.995 2.0128L119.069 0.943996H117.998V1.944ZM117.806 4.728L116.808 4.65919L116.734 5.728H117.806V4.728ZM117.998 4.728V5.728H118.28L118.521 5.58017L117.998 4.728ZM139.118 24.504L138.767 23.5677L138.118 23.811V24.504H139.118ZM138.877 25.6666C142.624 26.5955 145.322 28.0858 147.083 30.0647C148.829 32.028 149.734 34.5622 149.734 37.752H151.734C151.734 34.1578 150.702 31.124 148.577 28.7353C146.466 26.3622 143.356 24.7165 139.358 23.7254L138.877 25.6666ZM149.734 37.752C149.734 42.0594 147.848 45.3977 143.96 47.8502L145.027 49.5418C149.459 46.7463 151.734 42.7886 151.734 37.752H149.734ZM143.954 47.854C140.066 50.3451 134.958 51.632 128.558 51.632V53.632C135.213 53.632 140.73 52.2949 145.033 49.538L143.954 47.854ZM128.558 51.632C124.296 51.632 120.645 51.0362 117.585 49.8732L116.875 51.7428C120.214 53.0118 124.116 53.632 128.558 53.632V51.632ZM117.585 49.8732C114.494 48.6986 112.184 47.1794 110.592 45.3512L109.084 46.6648C110.947 48.8046 113.566 50.4854 116.875 51.7428L117.585 49.8732ZM110.614 45.3774C109.073 43.4804 108.342 41.5215 108.342 39.48H106.342C106.342 42.0465 107.275 44.4396 109.062 46.6386L110.614 45.3774ZM108.342 39.48C108.342 37.6321 108.856 36.1361 109.844 34.9292L108.296 33.6628C106.979 35.2719 106.342 37.2319 106.342 39.48H108.342ZM109.827 34.9496C110.832 33.7854 112.175 33.184 113.966 33.184V31.184C111.66 31.184 109.739 31.9906 108.313 33.6424L109.827 34.9496ZM113.966 33.184C115.64 33.184 116.8 33.728 117.601 34.7287L119.163 33.4793C117.915 31.92 116.131 31.184 113.966 31.184V33.184ZM117.601 34.7287C118.487 35.8361 118.918 37.057 118.918 38.424H120.918C120.918 36.591 120.325 34.9319 119.163 33.4793L117.601 34.7287ZM118.918 38.424C118.918 38.829 118.802 39.4037 118.504 40.177L120.371 40.895C120.714 40.0043 120.918 39.171 120.918 38.424H118.918ZM118.515 40.1514C118.234 40.8252 117.875 41.4009 117.442 41.8876L118.937 43.2164C119.529 42.5511 120.002 41.7828 120.361 40.9206L118.515 40.1514ZM117.316 43.0376C118.116 44.4783 119.61 45.5241 121.579 46.271L122.288 44.401C120.546 43.7399 119.544 42.9297 119.064 42.0664L117.316 43.0376ZM121.579 46.271C123.548 47.018 125.589 47.392 127.694 47.392V45.392C125.831 45.392 124.031 45.062 122.288 44.401L121.579 46.271ZM127.694 47.392C130.881 47.392 133.517 46.5405 135.477 44.7258L134.118 43.2582C132.622 44.6435 130.522 45.392 127.694 45.392V47.392ZM135.491 44.7123C137.458 42.8185 138.39 40.2298 138.39 37.08H136.39C136.39 39.8182 135.593 41.8375 134.104 43.2717L135.491 44.7123ZM138.39 37.08C138.39 33.9274 137.586 31.4294 135.726 29.8798L134.446 31.4162C135.658 32.4266 136.39 34.2166 136.39 37.08H138.39ZM135.744 29.8954C134.002 28.3712 131.839 27.632 129.326 27.632V29.632C131.421 29.632 133.097 30.2368 134.427 31.4006L135.744 29.8954ZM129.326 27.632H121.934V29.632H129.326V27.632ZM122.934 28.632V22.68H120.934V28.632H122.934ZM121.934 23.68H127.502V21.68H121.934V23.68ZM127.502 23.68C130.465 23.68 132.819 22.9054 134.241 21.0883L132.666 19.8557C131.784 20.9826 130.17 21.68 127.502 21.68V23.68ZM134.225 21.1089C135.609 19.4329 136.278 17.3741 136.278 15H134.278C134.278 16.9779 133.73 18.5671 132.683 19.8351L134.225 21.1089ZM136.278 15C136.278 12.1853 135.447 9.94059 133.574 8.536L132.374 10.136C133.573 11.0354 134.278 12.5667 134.278 15H136.278ZM133.611 8.56504C131.935 7.1805 129.876 6.512 127.502 6.512V8.512C129.48 8.512 131.069 9.0595 132.337 10.107L133.611 8.56504ZM127.502 6.512C124.868 6.512 122.411 7.47931 120.149 9.33004L121.415 10.878C123.377 9.27268 125.399 8.512 127.502 8.512V6.512ZM120.149 9.33004C117.753 11.2897 116.38 14.5315 115.853 18.8138L117.838 19.0582C118.335 15.0205 119.586 12.3743 121.415 10.878L120.149 9.33004ZM116.846 17.936H110.702V19.936H116.846V17.936ZM111.702 18.936V1.944H109.702V18.936H111.702ZM110.702 2.944H117.998V0.943996H110.702V2.944ZM117 1.87519L116.808 4.65919L118.803 4.7968L118.995 2.0128L117 1.87519ZM117.806 5.728H117.998V3.728H117.806V5.728ZM118.521 5.58017C121.987 3.45193 126.119 2.368 130.958 2.368V0.367996C125.812 0.367996 121.305 1.52406 117.475 3.87583L118.521 5.58017ZM130.958 2.368C136.019 2.368 139.852 3.40078 142.567 5.34854L143.733 3.72346C140.56 1.44722 136.264 0.367996 130.958 0.367996V2.368ZM142.567 5.34854C145.231 7.25987 146.566 9.92355 146.566 13.464H148.566C148.566 9.32444 146.956 6.03612 143.733 3.72346L142.567 5.34854ZM146.566 13.464C146.566 15.8989 145.917 17.9096 144.66 19.5523C143.395 21.2051 141.459 22.5582 138.767 23.5677L139.469 25.4403C142.409 24.3378 144.697 22.7949 146.248 20.7677C147.807 18.7304 148.566 16.2771 148.566 13.464H146.566ZM138.118 24.504V24.696H140.118V24.504H138.118ZM157.969 44.76L157.924 43.761L156.969 43.8044V44.76H157.969ZM161.233 44.376L161.476 45.3461L161.513 45.3368L161.549 45.3247L161.233 44.376ZM163.057 42.744L162.177 42.2699L163.057 42.744ZM164.017 10.008L165.015 10.0745L165.093 8.90275L163.924 9.01236L164.017 10.008ZM157.873 10.296H156.873V11.296H157.873V10.296ZM157.873 3V2H156.873V3H157.873ZM183.121 3H184.121V2H183.121V3ZM183.121 9.24V10.24H184.121V9.24H183.121ZM178.417 11.256L177.531 10.792L178.417 11.256ZM177.361 17.784H176.361V17.7954L176.361 17.8067L177.361 17.784ZM177.457 22.008L176.457 22.0307L176.481 23.0514L177.501 23.0071L177.457 22.008ZM181.873 21.816L181.841 20.8164L181.83 20.8169L181.873 21.816ZM198.673 25.272L198.048 26.0529L198.057 26.0597L198.066 26.0664L198.673 25.272ZM198.769 47.16L198.144 46.3791L198.137 46.3853L198.769 47.16ZM157.969 51H156.969V52H157.969V51ZM207.025 44.76V43.76H206.025V44.76H207.025ZM211.729 42.744L212.615 43.208L211.729 42.744ZM213.169 10.008L214.164 10.1075L214.285 8.90246L213.079 9.0121L213.169 10.008ZM206.929 10.296H205.929V11.296H206.929V10.296ZM206.929 3V2H205.929V3H206.929ZM232.081 3H233.081V2H232.081V3ZM232.081 9.24V10.24H233.081V9.24H232.081ZM227.377 11.256L226.491 10.792L226.482 10.8089L226.474 10.8261L227.377 11.256ZM226.033 43.992L225.038 43.8925L224.917 45.101L226.126 44.9876L226.033 43.992ZM232.273 43.704H233.273V42.704H232.273V43.704ZM232.273 51V52H233.273V51H232.273ZM207.025 51H206.025V52H207.025V51ZM183.889 44.376L183.825 43.3781L183.815 43.3787L183.806 43.3795L183.889 44.376ZM188.593 41.976L187.809 41.3553L187.806 41.3597L188.593 41.976ZM188.305 29.88L187.582 30.5705L187.598 30.5873L187.615 30.6034L188.305 29.88ZM177.361 27.864L177.262 26.869L176.361 26.959V27.864H177.361ZM177.073 42.168L176.087 42.0036L176.082 42.0305L176.079 42.0576L177.073 42.168ZM176.785 44.472L175.799 44.3076L175.605 45.472H176.785V44.472ZM158.014 45.759C159.446 45.6939 160.612 45.5621 161.476 45.3461L160.991 43.4059C160.319 43.5739 159.308 43.6981 157.924 43.761L158.014 45.759ZM161.549 45.3247C162.599 44.9748 163.39 44.2343 163.938 43.2181L162.177 42.2699C161.828 42.9177 161.403 43.2652 160.917 43.4273L161.549 45.3247ZM163.938 43.2181C164.505 42.1643 164.729 40.6814 164.729 38.904H162.729C162.729 40.5826 162.505 41.6597 162.177 42.2699L163.938 43.2181ZM164.729 38.904V18.456H162.729V38.904H164.729ZM164.729 18.456C164.729 15.7272 164.824 12.9334 165.015 10.0745L163.019 9.94148C162.826 12.8426 162.729 15.6808 162.729 18.456H164.729ZM163.924 9.01236C161.907 9.20147 159.89 9.296 157.873 9.296V11.296C159.952 11.296 162.032 11.1985 164.11 11.0036L163.924 9.01236ZM158.873 10.296V3H156.873V10.296H158.873ZM157.873 4H183.121V2H157.873V4ZM182.121 3V9.24H184.121V3H182.121ZM183.121 8.24C180.558 8.24 178.497 8.94894 177.531 10.792L179.303 11.72C179.745 10.875 180.82 10.24 183.121 10.24V8.24ZM177.531 10.792C176.709 12.3613 176.361 14.7436 176.361 17.784H178.361C178.361 14.8084 178.717 12.8387 179.303 11.72L177.531 10.792ZM176.361 17.8067L176.457 22.0307L178.457 21.9853L178.361 17.7613L176.361 17.8067ZM177.501 23.0071L181.917 22.8151L181.83 20.8169L177.414 21.0089L177.501 23.0071ZM181.905 22.8155C189.862 22.5609 195.144 23.7297 198.048 26.0529L199.298 24.4911C195.802 21.6943 189.884 20.5591 181.841 20.8165L181.905 22.8155ZM198.066 26.0664C201.054 28.3513 202.569 31.5616 202.569 35.832H204.569C204.569 31.0144 202.821 27.1847 199.281 24.4776L198.066 26.0664ZM202.569 35.832C202.569 40.5935 201.055 44.0504 198.144 46.3791L199.394 47.9409C202.883 45.1496 204.569 41.0545 204.569 35.832H202.569ZM198.137 46.3853C195.216 48.7699 191.422 50 186.673 50V52C191.78 52 196.051 50.6701 199.401 47.9347L198.137 46.3853ZM186.673 50H157.969V52H186.673V50ZM158.969 51V44.76H156.969V51H158.969ZM207.025 45.76C209.588 45.76 211.649 45.051 212.615 43.208L210.843 42.28C210.401 43.1249 209.326 43.76 207.025 43.76V45.76ZM212.615 43.208C213.437 41.6387 213.785 39.2564 213.785 36.216H211.785C211.785 39.1916 211.429 41.1613 210.843 42.28L212.615 43.208ZM213.785 36.216V18.456H211.785V36.216H213.785ZM213.785 18.456C213.785 15.4111 213.912 12.6288 214.164 10.1075L212.174 9.90849C211.914 12.5072 211.785 15.3569 211.785 18.456H213.785ZM213.079 9.0121C210.996 9.20147 208.946 9.296 206.929 9.296V11.296C209.008 11.296 211.119 11.1985 213.26 11.0039L213.079 9.0121ZM207.929 10.296V3H205.929V10.296H207.929ZM206.929 4H232.081V2H206.929V4ZM231.081 3V9.24H233.081V3H231.081ZM232.081 8.24C229.518 8.24 227.457 8.94894 226.491 10.792L228.263 11.72C228.705 10.875 229.78 10.24 232.081 10.24V8.24ZM226.474 10.8261C225.733 12.3825 225.417 14.7489 225.417 17.784H227.417C227.417 14.8031 227.741 12.8175 228.28 11.6859L226.474 10.8261ZM225.417 17.784V35.544H227.417V17.784H225.417ZM225.417 35.544C225.417 38.5889 225.29 41.3712 225.038 43.8925L227.028 44.0915C227.288 41.4928 227.417 38.6431 227.417 35.544H225.417ZM226.126 44.9876C228.143 44.7986 230.191 44.704 232.273 44.704V42.704C230.131 42.704 228.02 42.8014 225.94 42.9964L226.126 44.9876ZM231.273 43.704V51H233.273V43.704H231.273ZM232.273 50H207.025V52H232.273V50ZM208.025 51V44.76H206.025V51H208.025ZM180.529 45.472C182.009 45.472 183.162 45.4401 183.972 45.3725L183.806 43.3795C183.08 43.4399 181.993 43.472 180.529 43.472V45.472ZM183.953 45.3739C186.201 45.2289 188.041 44.3044 189.381 42.5923L187.806 41.3597C186.841 42.5916 185.545 43.2671 183.825 43.3781L183.953 45.3739ZM189.377 42.5967C190.771 40.8363 191.417 38.5477 191.417 35.832H189.417C189.417 38.2363 188.847 40.0437 187.809 41.3553L189.377 42.5967ZM191.417 35.832C191.417 33.0333 190.663 30.748 188.996 29.1566L187.615 30.6034C188.763 31.7 189.417 33.3827 189.417 35.832H191.417ZM189.028 29.1895C187.479 27.5659 185.481 26.768 183.121 26.768V28.768C184.986 28.768 186.444 29.3781 187.582 30.5705L189.028 29.1895ZM183.121 26.768H179.953V28.768H183.121V26.768ZM179.953 26.768C178.851 26.768 177.949 26.8002 177.262 26.869L177.461 28.859C178.053 28.7998 178.879 28.768 179.953 28.768V26.768ZM176.361 27.864V38.712H178.361V27.864H176.361ZM176.361 38.712C176.361 39.8082 176.27 40.9052 176.087 42.0036L178.059 42.3324C178.26 41.1268 178.361 39.9198 178.361 38.712H176.361ZM176.079 42.0576C175.951 43.2139 175.857 43.9549 175.799 44.3076L177.771 44.6364C177.841 44.2211 177.939 43.4261 178.067 42.2784L176.079 42.0576ZM176.785 45.472H180.529V43.472H176.785V45.472ZM277.239 25.56L277.459 24.5844L276.239 24.31V25.56H277.239ZM283.671 47.448L283.099 46.628L283.092 46.6332L283.671 47.448ZM240.279 51H239.279V52H240.279V51ZM240.279 44.76L240.234 43.761L239.279 43.8044V44.76H240.279ZM243.543 44.376L243.786 45.3461L243.823 45.3368L243.86 45.3247L243.543 44.376ZM245.367 42.744L246.248 43.2181L245.367 42.744ZM246.231 9.048L247.228 9.12469L247.314 8.01256L246.199 8.04852L246.231 9.048ZM240.279 9.24L239.279 9.22461L239.263 10.2733L240.312 10.2395L240.279 9.24ZM240.375 3L240.372 2L239.391 2.00328L239.375 2.98462L240.375 3ZM269.175 2.904V1.90399L269.172 1.904L269.175 2.904ZM283.575 21.048L282.765 20.4615L282.759 20.4708L282.752 20.4803L283.575 21.048ZM277.239 25.464H276.239V26.8997L277.586 26.402L277.239 25.464ZM277.239 24.12H278.239V23.12H277.239V24.12ZM275.799 24.12V23.12H274.799V24.12H275.799ZM275.799 25.272H274.799V26.0528L275.557 26.2421L275.799 25.272ZM276.951 25.56L277.194 26.5301V24.5899L276.951 25.56ZM275.799 25.944L275.352 25.0496L274.799 25.326V25.944H275.799ZM275.799 26.616H274.799V27.616H275.799V26.616ZM277.239 26.616V27.616H278.239V26.616H277.239ZM259.575 23.832H258.575V24.8535L259.597 24.8318L259.575 23.832ZM264.087 23.736L264.109 24.7358L264.125 24.7354L264.141 24.7346L264.087 23.736ZM271.287 21.432L270.546 20.7611L271.287 21.432ZM271.095 10.392L270.514 11.2057L270.527 11.2151L270.541 11.224L271.095 10.392ZM260.727 9.816L261.282 10.648L261.289 10.6432L261.297 10.6382L260.727 9.816ZM276.951 25.56L276.244 24.8529L274.537 26.56H276.951V25.56ZM277.239 25.464H278.239V24.464H277.239V25.464ZM277.239 25.56V26.56H278.239V25.56H277.239ZM268.023 44.376L267.998 43.3763L267.987 43.3766L267.976 43.3771L268.023 44.376ZM273.591 42.36L272.884 41.6529L272.875 41.662L272.866 41.6712L273.591 42.36ZM273.111 31.416L272.511 32.216L272.519 32.2218L272.527 32.2275L273.111 31.416ZM259.575 29.784L259.528 28.7851L258.575 28.8305V29.784H259.575ZM259.287 42.168L258.301 42.0036L258.296 42.0305L258.293 42.0576L259.287 42.168ZM258.999 44.472L258.013 44.3076L257.819 45.472H258.999V44.472ZM277.02 26.5356C280.747 27.3742 283.422 28.7312 285.161 30.5274C286.877 32.3012 287.759 34.5845 287.759 37.464H289.759C289.759 34.1355 288.721 31.3308 286.598 29.1366C284.496 26.9648 281.412 25.4738 277.459 24.5844L277.02 26.5356ZM287.759 37.464C287.759 41.4394 286.212 44.4551 283.099 46.628L284.244 48.268C287.915 45.7049 289.759 42.0646 289.759 37.464H287.759ZM283.092 46.6332C279.981 48.8465 275.82 50 270.519 50V52C276.099 52 280.706 50.7855 284.251 48.2628L283.092 46.6332ZM270.519 50H240.279V52H270.519V50ZM241.279 51V44.76H239.279V51H241.279ZM240.325 45.759C241.756 45.6939 242.922 45.5621 243.786 45.3461L243.301 43.4059C242.629 43.5739 241.618 43.6981 240.234 43.761L240.325 45.759ZM243.86 45.3247C244.909 44.9748 245.701 44.2343 246.248 43.2181L244.487 42.2699C244.138 42.9177 243.713 43.2652 243.227 43.4273L243.86 45.3247ZM246.248 43.2181C246.815 42.1643 247.039 40.6814 247.039 38.904H245.039C245.039 40.5826 244.815 41.6597 244.487 42.2699L246.248 43.2181ZM247.039 38.904V15.192H245.039V38.904H247.039ZM247.039 15.192C247.039 12.7752 247.103 10.7546 247.228 9.12469L245.234 8.9713C245.104 10.6694 245.039 12.7448 245.039 15.192H247.039ZM246.199 8.04852L240.247 8.24052L240.312 10.2395L246.264 10.0475L246.199 8.04852ZM241.279 9.25538L241.375 3.01538L239.375 2.98462L239.279 9.22461L241.279 9.25538ZM240.379 4L269.179 3.90399L269.172 1.904L240.372 2L240.379 4ZM269.175 3.904C274.562 3.904 278.424 4.84675 280.916 6.5808C283.342 8.26903 284.591 10.7933 284.591 14.328H286.591C286.591 10.2467 285.105 7.05897 282.059 4.93919C279.078 2.86524 274.733 1.904 269.175 1.904V3.904ZM284.591 14.328C284.591 16.7731 283.968 18.8001 282.765 20.4615L284.385 21.6345C285.87 19.5839 286.591 17.1309 286.591 14.328H284.591ZM282.752 20.4803C281.627 22.112 279.717 23.4822 276.893 24.526L277.586 26.402C280.65 25.2698 282.964 23.696 284.399 21.6157L282.752 20.4803ZM278.239 25.464V24.12H276.239V25.464H278.239ZM277.239 23.12H275.799V25.12H277.239V23.12ZM274.799 24.12V25.272H276.799V24.12H274.799ZM275.557 26.2421L276.709 26.5301L277.194 24.5899L276.042 24.3019L275.557 26.2421ZM276.709 24.5899C276.175 24.7234 275.707 24.8723 275.352 25.0496L276.247 26.8384C276.404 26.7597 276.704 26.6526 277.194 26.5301L276.709 24.5899ZM274.799 25.944V26.616H276.799V25.944H274.799ZM275.799 27.616H277.239V25.616H275.799V27.616ZM278.239 26.616V25.56H276.239V26.616H278.239ZM259.597 24.8318L264.109 24.7358L264.066 22.7362L259.554 22.8322L259.597 24.8318ZM264.141 24.7346C267.763 24.5405 270.527 23.7628 272.029 22.1029L270.546 20.7611C269.616 21.7892 267.579 22.5475 264.034 22.7374L264.141 24.7346ZM272.029 22.1029C273.476 20.5036 274.111 18.2028 274.111 15.384H272.111C272.111 17.9412 271.531 19.6724 270.546 20.7611L272.029 22.1029ZM274.111 15.384C274.111 12.7964 273.394 10.7224 271.65 9.55995L270.541 11.224C271.485 11.8536 272.111 13.1076 272.111 15.384H274.111ZM271.677 9.57827C270.073 8.43251 267.635 7.952 264.567 7.952V9.952C267.516 9.952 269.43 10.4315 270.514 11.2057L271.677 9.57827ZM264.567 7.952C262.764 7.952 261.239 8.24577 260.158 8.9938L261.297 10.6382C261.88 10.2342 262.914 9.952 264.567 9.952V7.952ZM260.173 8.98395C259.525 9.41602 259.135 10.1071 258.905 10.8727C258.675 11.6415 258.575 12.5806 258.575 13.656H260.575C260.575 12.6834 260.668 11.9585 260.821 11.4473C260.975 10.9329 261.162 10.728 261.282 10.648L260.173 8.98395ZM258.575 13.656V23.832H260.575V13.656H258.575ZM277.658 26.2671C277.469 26.4568 277.265 26.464 277.239 26.464V24.464C276.957 24.464 276.562 24.5352 276.244 24.8529L277.658 26.2671ZM276.239 25.464V25.56H278.239V25.464H276.239ZM277.239 24.56H276.951V26.56H277.239V24.56ZM268.049 45.3757C270.699 45.3077 272.853 44.5888 274.316 43.0488L272.866 41.6712C271.897 42.6912 270.34 43.3163 267.998 43.3763L268.049 45.3757ZM274.298 43.0671C275.803 41.5626 276.511 39.5599 276.511 37.176H274.511C274.511 39.1441 273.94 40.5974 272.884 41.6529L274.298 43.0671ZM276.511 37.176C276.511 34.293 275.645 32.0078 273.696 30.6045L272.527 32.2275C273.778 33.1282 274.511 34.683 274.511 37.176H276.511ZM273.711 30.616C271.965 29.3064 269.788 28.688 267.255 28.688V30.688C269.458 30.688 271.185 31.2216 272.511 32.216L273.711 30.616ZM267.255 28.688C263.482 28.688 260.899 28.7198 259.528 28.7851L259.623 30.7829C260.94 30.7202 263.477 30.688 267.255 30.688V28.688ZM258.575 29.784V38.712H260.575V29.784H258.575ZM258.575 38.712C258.575 39.8082 258.484 40.9052 258.301 42.0036L260.274 42.3324C260.475 41.1268 260.575 39.9198 260.575 38.712H258.575ZM258.293 42.0576C258.165 43.2139 258.072 43.9549 258.013 44.3076L259.986 44.6364C260.055 44.2211 260.154 43.4261 260.281 42.2784L258.293 42.0576ZM258.999 45.472C263.665 45.472 266.698 45.4402 268.071 45.3749L267.976 43.3771C266.66 43.4398 263.678 43.472 258.999 43.472V45.472ZM295.969 44.76L295.924 43.761L294.969 43.8044V44.76H295.969ZM299.233 44.376L299.476 45.3461L299.513 45.3368L299.549 45.3247L299.233 44.376ZM301.057 42.744L300.177 42.2699L301.057 42.744ZM302.017 10.008L303.015 10.0745L303.093 8.90275L301.924 9.01236L302.017 10.008ZM295.873 10.296H294.873V11.296H295.873V10.296ZM295.873 3V2H294.873V3H295.873ZM321.121 3H322.121V2H321.121V3ZM321.121 9.24V10.24H322.121V9.24H321.121ZM316.417 11.256L315.531 10.792L316.417 11.256ZM315.361 17.784H314.361V17.7954L314.361 17.8067L315.361 17.784ZM315.457 22.008L314.457 22.0307L314.481 23.0514L315.5 23.0071L315.457 22.008ZM319.873 21.816L319.841 20.8164L319.83 20.8169L319.873 21.816ZM336.673 25.272L336.048 26.0529L336.057 26.0597L336.066 26.0664L336.673 25.272ZM336.769 47.16L336.144 46.3791L336.137 46.3853L336.769 47.16ZM295.969 51H294.969V52H295.969V51ZM345.025 44.76V43.76H344.025V44.76H345.025ZM349.729 42.744L350.615 43.208L349.729 42.744ZM351.169 10.008L352.164 10.1075L352.285 8.90246L351.079 9.0121L351.169 10.008ZM344.929 10.296H343.929V11.296H344.929V10.296ZM344.929 3V2H343.929V3H344.929ZM370.081 3H371.081V2H370.081V3ZM370.081 9.24V10.24H371.081V9.24H370.081ZM365.377 11.256L364.491 10.792L364.482 10.8089L364.474 10.8261L365.377 11.256ZM364.033 43.992L363.038 43.8925L362.917 45.101L364.126 44.9876L364.033 43.992ZM370.273 43.704H371.273V42.704H370.273V43.704ZM370.273 51V52H371.273V51H370.273ZM345.025 51H344.025V52H345.025V51ZM321.889 44.376L321.825 43.3781L321.815 43.3787L321.806 43.3795L321.889 44.376ZM326.593 41.976L325.809 41.3553L325.806 41.3597L326.593 41.976ZM326.305 29.88L325.582 30.5705L325.598 30.5873L325.615 30.6034L326.305 29.88ZM315.361 27.864L315.262 26.869L314.361 26.959V27.864H315.361ZM315.073 42.168L314.087 42.0036L314.082 42.0305L314.079 42.0576L315.073 42.168ZM314.785 44.472L313.799 44.3076L313.605 45.472H314.785V44.472ZM296.014 45.759C297.446 45.6939 298.612 45.5621 299.476 45.3461L298.991 43.4059C298.319 43.5739 297.308 43.6981 295.924 43.761L296.014 45.759ZM299.549 45.3247C300.599 44.9748 301.39 44.2343 301.938 43.2181L300.177 42.2699C299.828 42.9177 299.403 43.2652 298.917 43.4273L299.549 45.3247ZM301.938 43.2181C302.505 42.1643 302.729 40.6814 302.729 38.904H300.729C300.729 40.5826 300.505 41.6597 300.177 42.2699L301.938 43.2181ZM302.729 38.904V18.456H300.729V38.904H302.729ZM302.729 18.456C302.729 15.7272 302.824 12.9334 303.015 10.0745L301.019 9.94148C300.826 12.8426 300.729 15.6808 300.729 18.456H302.729ZM301.924 9.01236C299.907 9.20147 297.89 9.296 295.873 9.296V11.296C297.952 11.296 300.032 11.1985 302.11 11.0036L301.924 9.01236ZM296.873 10.296V3H294.873V10.296H296.873ZM295.873 4H321.121V2H295.873V4ZM320.121 3V9.24H322.121V3H320.121ZM321.121 8.24C318.558 8.24 316.497 8.94894 315.531 10.792L317.303 11.72C317.745 10.875 318.82 10.24 321.121 10.24V8.24ZM315.531 10.792C314.709 12.3613 314.361 14.7436 314.361 17.784H316.361C316.361 14.8084 316.717 12.8387 317.303 11.72L315.531 10.792ZM314.361 17.8067L314.457 22.0307L316.457 21.9853L316.361 17.7613L314.361 17.8067ZM315.5 23.0071L319.917 22.8151L319.83 20.8169L315.414 21.0089L315.5 23.0071ZM319.905 22.8155C327.862 22.5609 333.144 23.7297 336.048 26.0529L337.298 24.4911C333.802 21.6943 327.884 20.5591 319.841 20.8165L319.905 22.8155ZM336.066 26.0664C339.054 28.3513 340.569 31.5616 340.569 35.832H342.569C342.569 31.0144 340.821 27.1847 337.281 24.4776L336.066 26.0664ZM340.569 35.832C340.569 40.5935 339.055 44.0504 336.144 46.3791L337.394 47.9409C340.883 45.1496 342.569 41.0545 342.569 35.832H340.569ZM336.137 46.3853C333.216 48.7699 329.422 50 324.673 50V52C329.78 52 334.051 50.6701 337.401 47.9347L336.137 46.3853ZM324.673 50H295.969V52H324.673V50ZM296.969 51V44.76H294.969V51H296.969ZM345.025 45.76C347.588 45.76 349.65 45.051 350.615 43.208L348.843 42.28C348.401 43.1249 347.326 43.76 345.025 43.76V45.76ZM350.615 43.208C351.437 41.6387 351.785 39.2564 351.785 36.216H349.785C349.785 39.1916 349.429 41.1613 348.843 42.28L350.615 43.208ZM351.785 36.216V18.456H349.785V36.216H351.785ZM351.785 18.456C351.785 15.4111 351.912 12.6288 352.164 10.1075L350.174 9.90849C349.914 12.5072 349.785 15.3569 349.785 18.456H351.785ZM351.079 9.0121C348.996 9.20147 346.946 9.296 344.929 9.296V11.296C347.008 11.296 349.119 11.1985 351.26 11.0039L351.079 9.0121ZM345.929 10.296V3H343.929V10.296H345.929ZM344.929 4H370.081V2H344.929V4ZM369.081 3V9.24H371.081V3H369.081ZM370.081 8.24C367.518 8.24 365.457 8.94894 364.491 10.792L366.263 11.72C366.706 10.875 367.78 10.24 370.081 10.24V8.24ZM364.474 10.8261C363.733 12.3825 363.417 14.7489 363.417 17.784H365.417C365.417 14.8031 365.741 12.8175 366.28 11.6859L364.474 10.8261ZM363.417 17.784V35.544H365.417V17.784H363.417ZM363.417 35.544C363.417 38.5889 363.29 41.3712 363.038 43.8925L365.028 44.0915C365.288 41.4928 365.417 38.6431 365.417 35.544H363.417ZM364.126 44.9876C366.143 44.7986 368.191 44.704 370.273 44.704V42.704C368.131 42.704 366.02 42.8014 363.94 42.9964L364.126 44.9876ZM369.273 43.704V51H371.273V43.704H369.273ZM370.273 50H345.025V52H370.273V50ZM346.025 51V44.76H344.025V51H346.025ZM318.529 45.472C320.009 45.472 321.162 45.4401 321.972 45.3725L321.806 43.3795C321.08 43.4399 319.993 43.472 318.529 43.472V45.472ZM321.953 45.3739C324.201 45.2289 326.041 44.3044 327.381 42.5923L325.806 41.3597C324.841 42.5916 323.545 43.2671 321.825 43.3781L321.953 45.3739ZM327.377 42.5967C328.771 40.8363 329.417 38.5477 329.417 35.832H327.417C327.417 38.2363 326.847 40.0437 325.809 41.3553L327.377 42.5967ZM329.417 35.832C329.417 33.0333 328.663 30.748 326.996 29.1566L325.615 30.6034C326.763 31.7 327.417 33.3827 327.417 35.832H329.417ZM327.028 29.1895C325.479 27.5659 323.481 26.768 321.121 26.768V28.768C322.986 28.768 324.444 29.3781 325.582 30.5705L327.028 29.1895ZM321.121 26.768H317.953V28.768H321.121V26.768ZM317.953 26.768C316.851 26.768 315.949 26.8002 315.262 26.869L315.461 28.859C316.053 28.7998 316.879 28.768 317.953 28.768V26.768ZM314.361 27.864V38.712H316.361V27.864H314.361ZM314.361 38.712C314.361 39.8082 314.27 40.9052 314.087 42.0036L316.059 42.3324C316.26 41.1268 316.361 39.9198 316.361 38.712H314.361ZM314.079 42.0576C313.951 43.2139 313.857 43.9549 313.799 44.3076L315.771 44.6364C315.841 44.2211 315.939 43.4261 316.067 42.2784L314.079 42.0576ZM314.785 45.472H318.529V43.472H314.785V45.472Z" fill="black"/>
</svg>
